<?xml version="1.0" encoding="UTF-8"?>
<svg width="60px" height="60px" viewBox="0 0 60 60" version="1.1" xmlns="http://www.w3.org/2000/svg" xmlns:xlink="http://www.w3.org/1999/xlink">
    <!-- Generator: Sketch 57.1 (83088) - https://sketch.com -->
    <title>icon/optimized/guest_count</title>
    <desc>Created with Sketch.</desc>
    <g id="icon/optimized/guest_count" stroke="none" stroke-width="1" fill="none" fill-rule="evenodd">
        <path d="M12.4198687,33.1540435 C10.4502962,33.8325372 8.68346258,34.8968145 7.19871284,36.2481393 C7.1868444,36.2618041 7.17329631,36.2746536 7.15928456,36.2869881 C4.41756677,38.7981526 2.64739928,42.2921411 2.35145576,46.1404129 L2.32612035,46.539748 L27.0200417,46.5390937 C27.1541109,43.639501 28.061425,40.9105963 29.5618212,38.5772064 C27.7924983,36.1217723 25.2830977,34.205631 22.3075652,33.1704469 C22.0658249,33.2872703 21.827616,33.3924121 21.5886494,33.4869904 C21.3219909,33.5923332 21.0530011,33.6871555 20.7821977,33.771539 C19.736541,34.1211875 18.6032837,34.310454 17.3842564,34.310454 C16.5114656,34.310454 15.6793229,34.2061741 14.8885941,34.0100997 C14.0419096,33.8214704 13.2136801,33.5348602 12.4198687,33.1540435 Z M30.4611131,39.9840166 L30.4001449,40.0893052 C29.3558152,41.9319722 28.7042446,44.0122689 28.5424069,46.2090088 L28.5218163,46.539378 L32.3570285,46.539748 C32.239218,44.1844582 31.5694956,41.9521028 30.4611131,39.9840166 Z M42.3122981,37.4951163 L37.573245,39.2072636 C36.8908966,39.454429 36.1692513,38.9496792 36.1692513,38.22386 L36.1692513,34.79988 C36.1692513,34.6447904 36.2021995,34.4997942 36.2606666,34.3700682 C34.3208971,35.4075179 32.6579686,36.8574497 31.3750266,38.5900183 C32.843199,40.9311728 33.7276175,43.6523917 33.8587459,46.5396309 L57.9794288,46.539378 C57.6774259,40.6170758 53.8182776,35.4911035 48.275275,33.4941344 L48.2081058,33.5284774 C47.9432342,33.6578899 47.6712232,33.7779834 47.3923178,33.8881934 C44.2998425,35.1101916 40.9872208,34.8688594 38.2276446,33.4960162 L38.3223949,33.4598089 L38.3418207,33.4533303 C38.0493112,33.5559635 37.7614207,33.6672806 37.4784202,33.7869427 C37.5101119,33.7952158 37.5414263,33.8049511 37.5726571,33.8162637 L42.3115439,35.5283517 C42.5405388,35.6108074 42.7126721,35.753122 42.8279555,35.9255644 C42.9407479,35.7532757 43.1127405,35.6110119 43.3415481,35.5286237 L43.3415481,35.5286237 L48.0806011,33.8164764 C48.7629495,33.569311 49.4845949,34.0740608 49.4845949,34.79988 L49.4845949,34.79988 L49.4845949,38.22386 C49.4845949,38.9496792 48.7629495,39.454429 48.0811891,39.2074763 L48.0811891,39.2074763 L43.3423023,37.4953883 C43.1133074,37.4129326 42.9411741,37.270618 42.8258907,37.0981756 C42.7130983,37.2704643 42.5411057,37.4127281 42.3122981,37.4951163 Z M37.6692513,35.4460549 L37.6692513,37.5776849 L40.6193207,36.5118701 L37.6692513,35.4460549 Z M47.9845949,35.4460551 L45.0345255,36.5118699 L47.9845949,37.5776851 L47.9845949,35.4460551 Z M13.7141553,13.744896 C10.0677756,15.1843238 7.66328405,18.5943301 7.46401917,22.3753504 L7.4530569,22.6669029 L7.4592747,22.909624 L7.45779024,23.2449002 L7.42001153,34.1226704 C8.50569316,33.3113178 9.69926579,32.6275799 10.980824,32.096193 L10.9349585,32.0621986 C9.85183284,31.2220337 9.11809018,30.3777364 8.73170232,29.7914069 C8.43099212,29.3350902 8.70361177,28.7206907 9.2437272,28.6374627 C13.9067094,27.9189306 18.4146651,25.60589 21.6455045,20.9551157 C22.0517417,20.3703397 22.9678581,20.6277025 23.0101382,21.3384795 C23.1458921,23.6206595 24.4478646,25.9479813 26.4462903,28.1240052 C26.5733779,28.2623871 26.6438974,28.4434289 26.6438974,28.631314 C26.6438974,29.163356 25.5695734,30.6474237 24.3265659,31.7261483 C24.1596159,31.8710332 23.9889201,32.0107464 23.8144953,32.1450474 C25.0372767,32.6616542 26.1788504,33.3183198 27.2215742,34.0923548 L27.2207436,24.122124 L27.2288902,24.0118811 L27.2406747,23.9367017 C27.40958,22.3690343 27.1964353,20.7792149 26.5981824,19.2776845 C24.577241,14.210516 18.8078523,11.7319804 13.7141553,13.744896 Z M47.6810791,20.8476835 C45.0674546,23.8300186 41.2683522,25.606426 37.1679077,25.606426 C35.9755102,25.606426 34.8014418,25.4558082 33.665606,25.162464 C33.7773073,25.8010191 33.957199,26.4398888 34.2078426,27.0682497 C35.0532493,29.1873821 36.5669653,30.8446895 38.4126249,31.8955322 C38.5247049,31.8962529 38.6351426,31.923776 38.7362437,31.9754367 C41.2260882,33.2476989 44.134374,33.4165633 46.7758154,32.373369 C47.0832147,32.2520692 47.3878973,32.1129687 47.6959591,31.9543217 C47.8276202,31.8865183 47.9753045,31.8597295 48.1203329,31.8754812 C50.1887063,30.6904685 51.6876736,28.8209722 52.4381964,26.6803704 C50.0659065,25.5237543 48.3265932,23.3836424 47.6810791,20.8476835 Z M21.8086339,23.2211623 C18.7415973,26.9317584 14.8345306,29.006435 10.7512175,29.8843736 C11.0759813,30.2233634 11.4440231,30.5587054 11.8543235,30.8769694 C12.8940893,31.6835006 14.0587295,32.2734324 15.3490189,32.5774725 C16.9682491,32.9164098 18.6589774,32.8509284 20.2774472,32.3574982 C21.4225153,31.9783351 22.4435647,31.3741905 23.3434149,30.5932697 C23.9161072,30.0962676 24.4004764,29.5580682 24.7802098,29.0335057 C24.8550719,28.9300914 24.9230885,28.8308348 24.9828533,28.7387232 C23.4495117,26.986991 22.3231161,25.1341968 21.8086339,23.2211623 Z M37.8733932,15.4319282 C36.4653728,16.3601107 35.3438534,17.6265729 34.5921506,19.086344 L34.4367622,19.402058 L34.3205931,19.6589803 L34.2118969,19.9193326 L34.2093949,19.9228089 L34.2073949,19.9278089 L34.1968131,19.956562 L34.1883949,19.9758089 L34.1760544,20.0101597 L34.1693949,20.0248089 L34.1593949,20.0508089 L34.1413949,20.0988089 L34.1411212,20.101371 C33.7296718,21.1921438 33.5132864,22.3635469 33.5215957,23.5640224 C34.6954087,23.9218932 35.9199789,24.106426 37.1679077,24.106426 C41.3855286,24.106426 45.2435959,22.0031917 47.5401621,18.5731776 C47.9436972,17.9704817 48.8826043,18.2346128 48.9127224,18.959303 C49.0230327,21.613553 50.5431106,23.9658202 52.8288454,25.1973843 C52.8474972,25.0941298 52.8644487,24.9906617 52.879697,24.887016 L52.9278131,24.5077182 L52.9607486,24.1272321 C52.9828046,23.795581 52.9875656,23.4630235 52.9749364,23.1307204 L52.9713949,23.0648089 L52.9713949,23.0588089 L52.9703949,23.0358089 L52.970518,23.0283032 L52.9673949,22.9738089 L52.9693949,23.0278089 L52.9653949,22.9458089 L52.9653949,22.9388089 L52.9643949,22.9278089 L52.9649745,22.9259768 L52.9633949,22.9088089 L52.9593949,22.8488089 L52.9583949,22.8328089 L52.9553949,22.7978089 L52.9553949,22.7958089 L52.9543949,22.7808089 L52.9533949,22.7678089 L52.9493949,22.7218089 L52.9353065,22.5521264 C52.9265248,22.4635153 52.9164975,22.3749704 52.9052227,22.2865141 L52.8676542,22.0214326 L52.8580444,21.9610641 L52.8553949,21.9508089 L52.8523949,21.9338089 L52.8513949,21.9268089 L52.8483949,21.9078089 L52.8333949,21.8218089 L52.8243949,21.7718089 L52.8243949,21.7698089 L52.8223949,21.7618089 L52.8173949,21.7328089 L52.8133949,21.7078089 L52.8163949,21.7308089 L52.8023949,21.6538089 L52.7983949,21.6358089 L52.7940114,21.6088888 L52.7913949,21.5988089 L52.7903949,21.5928089 L52.7833949,21.5628089 L52.7773949,21.5318089 L52.7673949,21.4868089 L52.7683949,21.4878089 L52.7607495,21.4504781 L52.7543949,21.4248089 L52.7493949,21.4018089 L52.7473949,21.3918089 L52.7433949,21.3758089 L52.7323949,21.3268089 L52.7313949,21.3228089 L52.7303949,21.3178089 L52.7303949,21.3168089 L52.6478051,20.9892338 C52.616326,20.8731262 52.5826117,20.75737 52.5466579,20.6420176 L52.5433949,20.6338089 L52.5433949,20.6318089 L52.5383949,20.6178089 L52.5363949,20.6108089 L52.5193949,20.5598089 L52.4272903,20.2837138 C52.3850786,20.1647548 52.3404429,20.0462912 52.2933783,19.928382 C52.1705039,19.6203151 52.033495,19.3220076 51.883386,19.0339042 C50.2066792,15.8170035 46.8979199,13.8724487 43.3960646,13.8190542 L43.1294662,13.8185508 L42.8623394,13.8255889 C41.7926627,13.8681251 40.7118749,14.0884292 39.6604387,14.5039065 C39.3523661,14.6256252 39.0540127,14.7612373 38.765817,14.9097315 L38.5710019,15.0129373 L38.3787691,15.1205314 L38.2513949,15.1938089 L38.2463949,15.1968089 L38.2443949,15.1978089 L38.1739987,15.2411841 C38.1438408,15.2594831 38.11381,15.2779298 38.0839067,15.296523 L38.1164606,15.27683 L38.0843949,15.2968089 L38.0423949,15.3218089 L38.0313949,15.3298089 L37.8733932,15.4319282 Z M52.5153092,20.5431253 L52.5193949,20.5598089 L52.5203949,20.5598089 L52.5153092,20.5431253 Z M37.9632656,15.3727716 C37.9232863,15.3984534 37.8835421,15.4243998 37.8440342,15.4506074 L37.8733932,15.4319282 L37.9942373,15.353548 L37.9942373,15.353548 L38.0293949,15.3298089 L37.9632656,15.3727716 Z M32.7633949,19.5038089 L32.7763949,19.4698089 L32.7767964,19.4696956 L32.7480018,19.5438006 C32.8006121,19.4054792 32.8559553,19.2682145 32.9139942,19.1320925 C32.9540492,19.0389688 32.9950331,18.9463888 33.0372561,18.8544028 C33.0456705,18.8351998 33.0544338,18.8162379 33.0632501,18.7973001 C33.0793142,18.7636972 33.0952731,18.7298805 33.1114,18.6961468 C34.1829862,16.4521756 36.0044692,14.5569709 38.3984481,13.4178794 C38.630174,13.3071873 38.8671428,13.2040036 39.1090062,13.1084558 C44.5301996,10.9670057 50.6283812,13.321846 53.2366705,18.3849446 C53.2702242,18.4501056 53.3035052,18.5162764 53.3361896,18.5828995 C53.4201752,18.7541812 53.5001177,18.928206 53.5759387,19.1050642 L53.6753949,19.3468089 L53.6723949,19.3368089 L53.6865695,19.3724878 L53.6869396,19.37304 C53.7297653,19.4804113 53.7708027,19.5880488 53.8100659,19.69592 C53.8206957,19.7254034 53.8311148,19.7543978 53.8414091,19.7834183 C53.8698985,19.86345 53.8975002,19.9441591 53.9241221,20.0249799 C53.9404418,20.0748427 53.9564021,20.1244717 53.9720025,20.1741677 C54.0299489,20.3583485 54.0827687,20.5432095 54.1305967,20.728446 C54.1437493,20.7801036 54.15679,20.8321881 54.1694447,20.8843282 C54.1933747,20.9820371 54.2156578,21.0795432 54.2365788,21.1771174 L54.2485655,21.2349736 C54.348423,21.7119493 54.4155202,22.1901747 54.4513436,22.6672096 L54.4588863,22.7814582 L54.4667828,22.9090653 L54.4728625,23.0365524 C54.488852,23.4221763 54.4845353,23.8065617 54.460536,24.1882732 C54.4587288,24.2075189 54.4574813,24.2265268 54.4561848,24.245532 C54.4061301,24.9898663 54.2805864,25.723949 54.0848065,26.4368957 L54.0755828,26.4673743 C54.0745328,26.471159 54.0734559,26.4749283 54.0723524,26.4786821 C53.4068104,28.8689558 51.9503511,31.0184846 49.8790525,32.5239946 C55.6417492,35.0847734 59.4985179,40.815554 59.4985179,47.289378 C59.4985179,47.6690738 59.2163641,47.982869 58.8502885,48.0325314 L58.7485179,48.039378 L1.55739487,48.039748 C1.14318131,48.039748 0.807394872,47.7039616 0.807394872,47.289748 C0.807394872,42.6689051 2.73846476,38.4196196 5.91462636,35.394349 L5.95780222,23.238944 L5.95955848,22.9266651 L5.95351945,22.6705566 C6.054515,18.1379704 8.85782263,14.0493149 13.1631283,12.3497727 C19.0242326,10.0335946 25.6638802,12.8859944 27.9915549,18.7222449 C28.6316513,20.3287965 28.8895719,22.0263191 28.763999,23.7332499 L28.7282124,24.1272869 L28.7207436,24.1775465 L28.7214236,35.3501209 C29.3581526,35.9517718 29.9453389,36.6023896 30.4775332,37.295183 C32.0858627,35.2591071 34.1836817,33.6069835 36.623332,32.5228143 C34.9698385,31.3230276 33.6259823,29.6578604 32.8146057,27.6240292 C31.7383008,24.9257448 31.7909919,22.0599406 32.7480018,19.5438006 L32.7513949,19.5338089 L32.7623949,19.5058089 L32.7633949,19.5038089 Z M38.0293949,15.3298089 L38.0423949,15.3218089 L38.0813949,15.2968089 L38.0293949,15.3298089 Z" id="Combined-Shape" fill="#000000" fill-rule="nonzero"></path>
        <path d="M28.7488359,37.25261 C23.2046308,41.72739 18.4605282,41.71777 17.3414256,41.64303 L17.3414256,41.61935 C17.3414256,41.61935 17.2901179,41.62527 17.215759,41.63267 C17.1421436,41.62527 17.0900923,41.61935 17.0900923,41.61935 L17.0900923,41.64303 C15.9717333,41.71777 11.2276308,41.72739 5.68268205,37.25261 C5.68268205,37.25261 1.89260513,40.09569 1.5609641,46.98435 L17.0900923,46.98435 L17.3414256,46.98435 L32.8712974,46.98435 C32.5396564,40.09569 28.7488359,37.25261 28.7488359,37.25261" id="Fill-13" fill="#DDF0EC"></path>
        <path d="M21.9082889,31.6933838 C21.608625,31.8476089 21.3215172,31.9795066 21.0370823,32.0920806 C18.335974,33.1591459 15.3612451,32.9841245 12.8190877,31.6776445 C12.6419134,31.5865901 12.4357938,31.5697605 12.2461955,31.6308682 C5.48136321,33.8111792 0.807394872,40.1008042 0.807394872,47.289748 C0.807394872,47.7039616 1.14318131,48.039748 1.55739487,48.039748 L33.1257538,48.039748 C33.5399674,48.039748 33.8757538,47.7039616 33.8757538,47.289748 C33.8757538,40.1189368 29.2253207,33.8415746 22.483642,31.6470798 C22.2933601,31.5851408 22.0862163,31.6018116 21.9082889,31.6933838 Z M32.3570285,46.539748 L2.32612035,46.539748 C2.63200988,40.4243992 6.65857023,35.1387406 12.4198687,33.1540435 C15.2775896,34.5249836 18.5813699,34.6750081 21.5886494,33.4869904 C21.827616,33.3924121 22.0658249,33.2872703 22.3075652,33.1704469 C28.0468775,35.1671466 32.0519901,40.4413646 32.3570285,46.539748 Z" id="Stroke-17" fill="#000000" fill-rule="nonzero"></path>
        <path d="M42.8265513,43.96108 C43.2712179,43.96108 43.6311154,44.31924 43.6311154,44.76102 C43.6311154,45.20354 43.2712179,45.5617 42.8265513,45.5617 C42.3826282,45.5617 42.0227308,45.20354 42.0227308,44.76102 C42.0227308,44.31924 42.3826282,43.96108 42.8265513,43.96108 Z M42.8265513,39.579614 C43.2712179,39.579614 43.6311154,39.937774 43.6311154,40.380294 C43.6311154,40.822074 43.2712179,41.180234 42.8265513,41.180234 C42.3826282,41.180234 42.0227308,40.822074 42.0227308,40.380294 C42.0227308,39.937774 42.3826282,39.579614 42.8265513,39.579614 Z" id="Combined-Shape" fill="#ECEEF0"></path>
        <path d="M43.5734128,35.821006 C43.9853615,36.230966 43.9853615,36.896226 43.5734128,37.306186 C43.1607205,37.716886 42.4929769,37.716886 42.0802846,37.306186 C41.6683359,36.896226 41.6683359,36.230966 42.0802846,35.821006 C42.4929769,35.410306 43.1607205,35.410306 43.5734128,35.821006" id="Fill-41" fill="#000000"></path>
    </g>
</svg>